<?xml version="1.0" encoding="UTF-8" standalone="no"?>
<svg
   width="512"
   height="512"
   viewBox="0 0 512 512"
   version="1.1"
   id="svg2861"
   xml:space="preserve"
   sodipodi:docname="icon.svg"
   inkscape:version="1.4.2 (ebf0e940d0, 2025-05-08)"
   xmlns:inkscape="http://www.inkscape.org/namespaces/inkscape"
   xmlns:sodipodi="http://sodipodi.sourceforge.net/DTD/sodipodi-0.dtd"
   xmlns="http://www.w3.org/2000/svg"
   xmlns:svg="http://www.w3.org/2000/svg"><sodipodi:namedview
     id="namedview1"
     pagecolor="#ffffff"
     bordercolor="#000000"
     borderopacity="0.25"
     inkscape:showpageshadow="2"
     inkscape:pageopacity="0.0"
     inkscape:pagecheckerboard="0"
     inkscape:deskcolor="#d1d1d1"
     inkscape:zoom="1.1683835"
     inkscape:cx="188.29434"
     inkscape:cy="267.8915"
     inkscape:window-width="1920"
     inkscape:window-height="1048"
     inkscape:window-x="0"
     inkscape:window-y="0"
     inkscape:window-maximized="1"
     inkscape:current-layer="svg2861" /><defs
     id="defs2865" /><style
     type="text/css"
     id="style4134">
	.st0{fill:#000000;}
</style><style
     type="text/css"
     id="style4902">
	.st0{fill:#000000;}
</style><rect
     style="display:inline;fill:#00c2a4;fill-opacity:1.0;stroke:#00c2a4;stroke-width:44.2621;stroke-linecap:round;stroke-linejoin:round;stroke-dasharray:none;stroke-opacity:1.0;paint-order:stroke fill markers"
     id="rect7295"
     width="467.73792"
     height="467.73792"
     x="22.131033"
     y="22.131033"
     ry="0" /><g
     id="g4906"
     transform="matrix(-0.91992681,0,0,1.0145637,495.72463,-1.6614824)"
     style="fill:#00c2a4;fill-opacity:1.0;stroke:#00c2a4;stroke-opacity:1.0">
	
<path
   class="st0"
   d="m 353.2869,283.31723 c 0,0 -99.798,-52.2928 -125.00668,-98.96674 -19.50784,-36.11882 -0.67068,-72.82828 37.76275,-78.67006 0,0 -11.01115,-5.16891 0.10497,-11.534191 -84.96492,0.61322 -116.14261,85.366341 -105.80791,106.316381 36.90491,74.81201 192.94687,82.85461 192.94687,82.85461 z"
   id="path7267"
   style="display:inline;fill:#ffffff;fill-opacity:1.0;stroke-width:0.80406;stroke:#ffffff;stroke-opacity:1.0"
   sodipodi:nodetypes="csccsc" /></g><g
     id="g7878"
     transform="matrix(22.751983,0,0,22.751983,10.806502,13.860456)"
     style="stroke:#00c2a4;stroke-opacity:1.0"><rect
       style="fill:#00c2a4;fill-opacity:1.0;stroke:#ffffff;stroke-width:1;stroke-linecap:round;stroke-linejoin:round;stroke-dasharray:none;stroke-opacity:1.0"
       id="rect7152"
       width="8.7188339"
       height="5.724762"
       x="1.8004508"
       y="2.0321078" /><path
       class="st0"
       d="M 328.653,272.369 C 221.045,225.405 168.211,207.807 131.046,162.792 102.86319,132.30185 198.90555,50.314648 245.87055,19.050648 151.98504,31.164791 -68.994073,176.21065 56.684,266.501 c 138.914,99.788 170.43881,143.28885 -18.486745,215.41651 0,0 329.874655,10.09785 430.670975,-70.85873 C 520.64351,369.47443 452.308,326.321 328.653,272.369 Z"
       id="path4904"
       style="fill:#ffffff;fill-opacity:1.0;stroke:#ffffff;stroke-opacity:1.0"
       sodipodi:nodetypes="cccccsc"
       transform="matrix(-0.04043282,0,0,0.04459232,21.313225,-0.68222357)" /><path
       style="fill:#ffffff;stroke:#ffffff;stroke-width:1px;stroke-linecap:butt;stroke-linejoin:miter;stroke-opacity:1.0;fill-opacity:1.0"
       d="M 1.7072005,3.5497075 10.533805,3.5369335"
       id="path7265" /><path
       style="fill:#ffffff;stroke:#ffffff;stroke-width:0.863769px;stroke-linecap:butt;stroke-linejoin:miter;stroke-opacity:1.0;fill-opacity:1.0"
       d="M 3.1557064,5.0865799 9.7063735,5.0737379"
       id="path7289" /><path
       style="fill:#ffffff;stroke:#ffffff;stroke-width:0.863769px;stroke-linecap:butt;stroke-linejoin:miter;stroke-opacity:1.0;fill-opacity:1.0"
       d="M 3.1557064,6.3724961 9.7063735,6.3596541"
       id="path7291" /><ellipse
       style="fill:#00c2a4;fill-opacity:1.0;stroke:#ffffff;stroke-width:1;stroke-linecap:round;stroke-linejoin:round;stroke-dasharray:none;stroke-opacity:1.0;paint-order:stroke fill markers"
       id="path8614"
       cx="10.573987"
       cy="4.14605"
       rx="0.57593513"
       ry="0.57137299" /></g></svg>
